# xmcd
#
# Track frame offsets: 
#        150
#        18692
#        31306
#        43127
#        53175
#        65685
#        82229
#        97351
#        113141
#        127575
#        142909
#        155722
#        169192
#        183568
#        200456
#        213912
#        234608
#        249605
#        262139
#        277597
#        298234
#        313086
#        329409
#        343356
#
# Disc length: 4723 seconds
#
# Revision: 0
# Processed by: cddbd v1.5.2PL0 Copyright (c) Steve Scherf et al.
# Submitted via: ExactAudioCopy v1.0b2
#
DISCID=7e127118
DTITLE=Various Artist - Black Explosion
DYEAR=1974
DGENRE=Soul
TTITLE0=Love Unlimited Orchestra - Love's Theme
TTITLE1=First Choice - Armed And Extremely Dangerous
TTITLE2=Wilson Pickett - Soft Soul Boogie Woogie
TTITLE3=Tony Clarke - Landslide
TTITLE4=Limmie and Family Cookin' - A Walkin' Miracle
TTITLE5=Jimmy Helms - Gonna Make You An Offer You Can't Refuse
TTITLE6=The Delfonics - Didn't Blow Your Mind This Time
TTITLE7=Gladys Knight And The Pips - I've Got To Use My Imagination
TTITLE8=The Whispers - A Mother For My Children
TTITLE9=The Dells - Sing A Rainbow-Love Is Blue
TTITLE10=New York City - I'm Doing Fine Now
TTITLE11=Sly and The Family Stone - Dance To The Music
TTITLE12=Barry White - Honey Please, Can't Ya See
TTITLE13=Jimmy Ruffin - Tell Me What You Want
TTITLE14=The O'Jays - Love Train
TTITLE15=Isaac Hayes - Theme From Shaft
TTITLE16=The Stylistics - I'm Stone In Love With You
TTITLE17=Johnny Nash - There Are More Questions Than Answers
TTITLE18=OC Smith - La La Peace Song
TTITLE19=Billy Paul - Brown Baby
TTITLE20=Main Ingredient - Everybody Plays The Fool
TTITLE21=Harold Melvin And The Blue Notes - The Love I Lost
TTITLE22=Johnny Johnson and The Bandwagon - (Blame It) On The Pony Exp
TTITLE22=ress
TTITLE23=Aretha Franklin - Soulville
EXTD=
EXTT0=
EXTT1=
EXTT2=
EXTT3=
EXTT4=
EXTT5=
EXTT6=
EXTT7=
EXTT8=
EXTT9=
EXTT10=
EXTT11=
EXTT12=
EXTT13=
EXTT14=
EXTT15=
EXTT16=
EXTT17=
EXTT18=
EXTT19=
EXTT20=
EXTT21=
EXTT22=
EXTT23=
PLAYORDER=
